<?xml version="1.0" standalone="no"?>
<!DOCTYPE svg PUBLIC "-//W3C//DTD SVG 20010904//EN"
 "http://www.w3.org/TR/2001/REC-SVG-20010904/DTD/svg10.dtd">
<svg version="1.0" xmlns="http://www.w3.org/2000/svg"
 width="500.000000pt" height="500.000000pt" viewBox="0 0 500.000000 500.000000"
 preserveAspectRatio="xMidYMid meet">

<g transform="translate(0.000000,500.000000) scale(0.100000,-0.100000)"
fill="#000000" stroke="none">
<path d="M1530 3797 c-36 -13 -83 -35 -106 -49 -58 -37 -144 -129 -181 -196
-65 -114 -64 -97 -61 -1127 l3 -930 24 -60 c27 -69 68 -131 126 -194 51 -55
91 -81 185 -117 l75 -29 820 -3 c478 -2 860 1 916 7 190 19 324 104 413 263
67 120 66 103 66 1099 0 555 -4 917 -10 950 -33 181 -202 357 -380 398 -29 7
-357 11 -935 11 l-890 0 -65 -23z m665 -206 l-59 -59 -245 -4 c-230 -3 -249
-4 -286 -25 -47 -25 -85 -64 -111 -113 -18 -33 -19 -76 -19 -930 l0 -895 22
-40 c26 -49 88 -110 128 -126 18 -7 102 -14 211 -17 l181 -4 5 90 c4 79 9 100
42 169 37 75 57 97 572 613 294 294 545 550 558 568 13 18 32 63 42 99 l18 66
14 -39 c9 -23 16 -76 16 -129 1 -84 -1 -95 -36 -168 -41 -85 -29 -72 -624
-677 -413 -421 -433 -448 -442 -615 l-5 -95 -231 0 c-127 0 -257 4 -289 10
-118 19 -224 99 -274 205 l-28 60 0 925 0 925 28 55 c49 94 149 181 230 200
18 5 169 8 336 9 l304 1 -58 -59z m1242 25 c66 -37 132 -103 169 -169 l29 -52
3 -909 c3 -1006 5 -966 -61 -1062 -36 -52 -129 -124 -187 -145 -24 -8 -133
-13 -347 -16 -352 -5 -339 -9 -280 69 l33 43 269 5 c257 5 272 7 315 29 25 12
60 42 78 66 65 86 63 40 60 1005 -3 875 -3 875 -25 915 -25 47 -64 85 -113
111 -31 17 -64 19 -275 22 l-241 4 -64 59 -65 60 325 -3 325 -3 52 -29z m-822
-100 c70 -32 112 -70 143 -130 23 -44 27 -63 27 -136 0 -68 -5 -93 -22 -126
-36 -67 -70 -101 -135 -133 -151 -76 -333 -13 -400 137 -64 144 -8 308 131
379 81 43 178 46 256 9z m-565 -177 c-14 -49 -12 -116 6 -184 28 -108 27 -107
351 -419 l102 -98 154 153 c261 261 282 297 282 481 l0 107 40 -33 c23 -19 54
-61 75 -100 31 -60 35 -77 35 -146 0 -72 -3 -84 -40 -154 -36 -69 -76 -112
-413 -451 l-374 -376 -41 37 c-135 119 -456 448 -479 491 -49 91 -58 204 -23
302 l12 36 13 -45 c26 -96 40 -112 393 -450 l108 -103 60 59 c32 32 59 61 59
64 0 3 -88 89 -195 190 -108 102 -209 205 -225 230 -44 69 -64 156 -50 227 13
71 63 156 114 194 22 16 41 27 43 26 1 -2 -2 -19 -7 -38z m-386 -880 c12 -14
124 -124 250 -244 l227 -218 -73 -74 -73 -74 -25 29 c-14 16 -59 61 -102 99
-210 192 -258 280 -257 473 0 93 0 94 16 65 9 -16 26 -42 37 -56z m1717 -31
c-1 -110 -28 -198 -85 -276 -24 -33 -186 -202 -360 -376 -329 -330 -363 -372
-384 -474 l-8 -37 -93 -3 -94 -3 5 78 c8 141 2 133 515 649 252 253 467 477
478 497 10 20 21 35 23 32 2 -2 3 -41 3 -87z"/>
</g>
</svg>
